
<svg version="1.0" xmlns="http://www.w3.org/2000/svg"
 width="35.000000pt" height="35.000000pt" viewBox="0 0 27.000000 25.000000"
 preserveAspectRatio="xMidYMid meet">

<g transform="translate(0.000000,25.000000) scale(0.100000,-0.100000)"
fill="#000000" stroke="none">
<path d="M94 175 c-9 -14 -13 -32 -9 -45 7 -22 50 -44 66 -34 6 3 19 -2 30
-12 24 -22 38 -10 16 14 -10 11 -14 26 -10 40 7 29 -22 62 -53 62 -14 0 -30
-10 -40 -25z m74 -27 c2 -19 -2 -28 -18 -33 -24 -8 -50 10 -50 35 0 24 10 31
40 28 19 -2 26 -10 28 -30z"/>
</g>
</svg>
